<?xml version="1.0" encoding="UTF-8"?>
<!DOCTYPE svg PUBLIC "-//W3C//DTD SVG 1.1//EN" "http://www.w3.org/Graphics/SVG/1.1/DTD/svg11.dtd">
<!-- Creator: CorelDRAW X7 -->
<svg xmlns="http://www.w3.org/2000/svg" xml:space="preserve" width="100px" height="176px" version="1.1" style="shape-rendering:geometricPrecision; text-rendering:geometricPrecision; image-rendering:optimizeQuality; fill-rule:evenodd; clip-rule:evenodd"
viewBox="0 0 10000 17647"
 xmlns:xlink="http://www.w3.org/1999/xlink">
 <defs>
  <style type="text/css">
   <![CDATA[
    .str0 {stroke:black;stroke-width:23.5294}
    .fil0 {fill:black}
   ]]>
  </style>
 </defs>
 <g id="Слой_x0020_1">
  <metadata id="CorelCorpID_0Corel-Layer"/>
  <path class="fil0 str0" d="M7351 3164l996 0 0 -2375c0,-228 -186,-414 -414,-414l-168 0c-227,0 -414,186 -414,414l0 2375zm-6213 0l7765 0c453,0 823,370 823,823l0 12471c0,453 -370,823 -823,823l-7765 0c-453,0 -823,-370 -823,-823l0 -12471c0,-453 370,-823 823,-823zm3882 11456c488,0 883,395 883,882 0,488 -395,883 -883,883 -487,0 -882,-395 -882,-883 0,-487 395,-882 882,-882zm-2352 0c487,0 882,395 882,882 0,488 -395,883 -882,883 -488,0 -883,-395 -883,-883 0,-487 395,-882 883,-882zm4705 0c488,0 883,395 883,882 0,488 -395,883 -883,883 -487,0 -882,-395 -882,-883 0,-487 395,-882 882,-882zm-2353 -2353c488,0 883,395 883,882 0,488 -395,883 -883,883 -487,0 -882,-395 -882,-883 0,-487 395,-882 882,-882zm2353 0c488,0 883,395 883,882 0,488 -395,883 -883,883 -487,0 -882,-395 -882,-883 0,-487 395,-882 882,-882zm-4705 0c487,0 882,395 882,882 0,488 -395,883 -882,883 -488,0 -883,-395 -883,-883 0,-487 395,-882 883,-882zm0 -2353c487,0 882,395 882,882 0,488 -395,883 -882,883 -488,0 -883,-395 -883,-883 0,-487 395,-882 883,-882zm2352 0c488,0 883,395 883,882 0,488 -395,883 -883,883 -487,0 -882,-395 -882,-883 0,-487 395,-882 882,-882zm2353 0c488,0 883,395 883,882 0,488 -395,883 -883,883 -487,0 -882,-395 -882,-883 0,-487 395,-882 882,-882zm-4957 -5406l5209 0c474,0 862,388 862,862l0 2759c0,474 -388,862 -862,862l-5209 0c-474,0 -862,-388 -862,-862l0 -2759c0,-474 388,-862 862,-862z"/>
 </g>
</svg>
